<svg width="80" height="80" viewBox="0 0 80 80" fill="none" xmlns="http://www.w3.org/2000/svg">
<path d="M66 48.16L64.0191 53.9659L62.0381 61.3202C62.0381 61.3202 56.8857 64.0298 56.4895 62.0943C56.0933 60.1591 58.4705 59.7719 58.4705 59.7719L59.2629 55.9014L53.32 45.4506L66 48.16Z" fill="white"/>
<path d="M66 48.16L64.0191 53.9659L62.0381 61.3202C62.0381 61.3202 56.8857 64.0298 56.4895 62.0943C56.0933 60.1591 58.4705 59.7719 58.4705 59.7719L59.2629 55.9014L53.32 45.4506L66 48.16Z" fill="white"/>
<path d="M32.3162 45.838L28.7505 61.7077C28.7505 61.7077 25.9758 63.256 23.9945 62.4819C22.013 61.7077 25.1832 59.7723 25.1832 59.7723C25.1832 59.7723 23.9945 50.0958 18.0503 48.9345C12.1061 47.7734 32.3162 45.838 32.3162 45.838Z" fill="white"/>
<path d="M32.3162 45.838L28.7505 61.7077C28.7505 61.7077 25.9758 63.256 23.9945 62.4819C22.013 61.7077 25.1832 59.7723 25.1832 59.7723C25.1832 59.7723 23.9945 50.0958 18.0503 48.9345C12.1061 47.7734 32.3162 45.838 32.3162 45.838Z" fill="white"/>
<path d="M8.93582 27.259C8.93582 27.259 16.8613 29.9684 23.9945 28.4201C23.9945 28.4201 37.8648 26.4848 39.0533 26.0977C40.2419 25.7107 53.7162 24.9365 60.8476 26.0977C60.8476 26.0977 80.6629 11.0022 69.5676 4.42211C69.5676 4.42211 64.8114 6.74449 63.6229 5.19623C63.1772 4.61563 63.4 3.87174 63.8514 3.16867C64.3638 2.40473 65.0572 1.77392 65.8743 1.33078C66.6914 0.88764 67.6076 0.645489 68.541 0.625283C72.6819 0.473852 80.1029 1.92726 76.7353 15.1515C75.7753 18.7991 74.0057 22.1961 71.5543 25.1025C69.7486 27.2755 67.8819 30.2828 68.7734 32.6778C70.36 36.9356 70.7562 43.5157 70.7562 43.5157L76.3029 51.6439C76.3029 51.6439 79.4743 61.7077 79.4743 62.0947C79.4743 62.4818 75.1619 63.3029 74.3219 62.4818C73.5295 61.7077 75.5105 60.1594 75.5105 60.1594C75.5105 60.1594 73.9257 57.0629 71.1524 56.2887C68.3772 55.5146 60.8476 52.8052 59.6591 51.6439C58.4705 50.4828 33.1086 43.5157 25.9758 50.0958C21.973 53.8309 17.7379 57.3211 13.2949 60.5464C13.2949 60.5464 11.3135 63.256 8.93582 63.256C6.55811 63.256 6.16192 59.7723 8.93582 59.3853C11.7097 58.9981 15.6726 49.7086 15.6726 49.7086C15.6726 49.7086 16.8613 42.7416 10.9172 41.5803C7.64039 40.9403 5.68821 40.8882 4.59602 40.9704C4.15983 41.0059 3.72077 40.9551 3.30515 40.8212C2.88954 40.6874 2.50554 40.4731 2.1764 40.1914C1.46935 39.5272 0.835818 38.792 0.286675 37.9979C0.141723 37.7963 0.0483922 37.5637 0.0144875 37.3196C-0.0196078 37.0755 0.00667501 36.827 0.0912464 36.5948C0.619056 35.1877 1.05831 33.7503 1.4065 32.2908C1.80269 30.3555 4.97297 28.8072 4.97297 28.8072C4.97297 28.8072 5.76554 23.3883 6.95449 24.9365C7.56363 25.7511 8.22535 26.5267 8.93582 27.259Z" fill="white"/>
<path d="M8.93582 27.259C8.93582 27.259 16.8613 29.9684 23.9945 28.4201C23.9945 28.4201 37.8648 26.4848 39.0533 26.0977C40.2419 25.7107 53.7162 24.9365 60.8476 26.0977C60.8476 26.0977 80.6629 11.0022 69.5676 4.42211C69.5676 4.42211 64.8114 6.74449 63.6229 5.19623C63.1772 4.61563 63.4 3.87174 63.8514 3.16867C64.3638 2.40473 65.0572 1.77392 65.8743 1.33078C66.6914 0.88764 67.6076 0.645489 68.541 0.625283C72.6819 0.473852 80.1029 1.92726 76.7353 15.1515C75.7753 18.7991 74.0057 22.1961 71.5543 25.1025C69.7486 27.2755 67.8819 30.2828 68.7734 32.6778C70.36 36.9356 70.7562 43.5157 70.7562 43.5157L76.3029 51.6439C76.3029 51.6439 79.4743 61.7077 79.4743 62.0947C79.4743 62.4818 75.1619 63.3029 74.3219 62.4818C73.5295 61.7077 75.5105 60.1594 75.5105 60.1594C75.5105 60.1594 73.9257 57.0629 71.1524 56.2887C68.3772 55.5146 60.8476 52.8052 59.6591 51.6439C58.4705 50.4828 33.1086 43.5157 25.9758 50.0958C21.973 53.8309 17.7379 57.3211 13.2949 60.5464C13.2949 60.5464 11.3135 63.256 8.93582 63.256C6.55811 63.256 6.16192 59.7723 8.93582 59.3853C11.7097 58.9981 15.6726 49.7086 15.6726 49.7086C15.6726 49.7086 16.8613 42.7416 10.9172 41.5803C7.64039 40.9403 5.68821 40.8882 4.59602 40.9704C4.15983 41.0059 3.72077 40.9551 3.30515 40.8212C2.88954 40.6874 2.50554 40.4731 2.1764 40.1914C1.46935 39.5272 0.835818 38.792 0.286675 37.9979C0.141723 37.7963 0.0483922 37.5637 0.0144875 37.3196C-0.0196078 37.0755 0.00667501 36.827 0.0912464 36.5948C0.619056 35.1877 1.05831 33.7503 1.4065 32.2908C1.80269 30.3555 4.97297 28.8072 4.97297 28.8072C4.97297 28.8072 5.76554 23.3883 6.95449 24.9365C7.56363 25.7511 8.22535 26.5267 8.93582 27.259Z" fill="white"/>
</svg>
